<svg viewBox="-49 0 512 512.00001" xmlns="http://www.w3.org/2000/svg"><path d="m347.433594 379.226562h-281.335938c-19.042968 0-34.269531-15.816406-33.550781-34.84375l8.679687-229.042968h331.074219l8.683594 229.042968c.71875 19.027344-14.511719 34.84375-33.550781 34.84375zm0 0" fill="#565c62"/><path d="m344.402344 504.496094h-275.277344v-139.683594c0-12.621094 10.230469-22.851562 22.851562-22.851562h229.574219c12.621094 0 22.851563 10.230468 22.851563 22.851562zm0 0" fill="#e6cb59"/><path d="m406.03125 205.25c0 18.953125-15.363281 34.316406-34.316406 34.316406s-34.316406-15.363281-34.316406-34.316406 15.363281-34.316406 34.316406-34.316406 34.316406 15.363281 34.316406 34.316406zm0 0" fill="#cc9883"/><path d="m76.132812 205.25c0 18.953125-15.363281 34.316406-34.316406 34.316406s-34.316406-15.363281-34.316406-34.316406 15.363281-34.316406 34.316406-34.316406 34.316406 15.363281 34.316406 34.316406zm0 0" fill="#cc9883"/><path d="m48.589844 504.496094c0-87.355469 70.816406-158.171875 158.175781-158.171875 87.355469 0 158.171875 70.816406 158.171875 158.171875zm0 0" fill="#efedee"/><path d="m234.652344 504.496094-20-89.984375h-16.949219l-20 89.984375zm0 0" fill="#e36465"/><path d="m206.765625 354.835938h-58.273437v35.082031s22.226562 13.699219 58.273437 13.699219 58.273437-13.699219 58.273437-13.699219v-35.082031zm0 0" fill="#d9d7d8"/><path d="m221.765625 347.039062c-4.9375-.464843-9.941406-.714843-15-.714843-87.355469 0-158.175781 70.816406-158.175781 158.171875h30c0-82.292969 62.855468-149.902344 143.175781-157.457032zm0 0" fill="#d9d7d8"/><path d="m262.792969 356.546875v147.949219h44v-122.523438c-13.085938-10.695312-27.917969-19.332031-44-25.425781zm0 0" fill="#fadc60"/><path d="m106.738281 381.972656v122.523438h44v-147.949219c-16.085937 6.09375-30.914062 14.730469-44 25.425781zm0 0" fill="#fadc60"/><path d="m379.878906 195.617188c0 95.609374-77.503906 173.113281-173.113281 173.113281s-173.117187-77.503907-173.117187-173.113281c0-95.609376 77.507812-173.117188 173.117187-173.117188s173.113281 77.507812 173.113281 173.117188zm0 0" fill="#fbc4ac"/><path d="m206.765625 22.5c-95.609375 0-173.117187 77.507812-173.117187 173.117188 0 95.609374 77.507812 173.113281 173.117187 173.113281 5.054687 0 10.054687-.226563 15-.652344-88.585937-7.605469-158.117187-81.90625-158.117187-172.460937 0-5.375.253906-10.683594.730468-15.933594 9.875-4.996094 20.382813-11.625 30.296875-20.382813l6.519531 12.765625c7.023438 13.757813 20.980469 22.304688 36.425782 22.304688h138.285156c15.445312 0 29.402344-8.546875 36.429688-22.304688l6.515624-12.765625c21.84375 19.292969 46.558594 28.273438 60.976563 32.175781-2.199219-93.695312-78.839844-168.976562-173.0625-168.976562zm0 0" fill="#e3b098"/><path d="m197.886719 419.148438-11.003907-11c-4.90625-4.90625-4.90625-12.859376 0-17.761719l11.003907-11.003907c4.902343-4.902343 12.855469-4.902343 17.757812 0l11.003907 11.003907c4.902343 4.902343 4.902343 12.855469 0 17.761719l-11.003907 11c-4.902343 4.90625-12.855469 4.90625-17.757812 0zm0 0" fill="#fd6f71"/><path d="m206.765625 7.5c-98.238281 0-179.128906 75.6875-187.417969 171.8125 0 0 48.417969-6.984375 79.082032-45.648438l16.125 31.578126c4.425781 8.667968 13.335937 14.125 23.070312 14.125h138.28125c9.734375 0 18.644531-5.457032 23.070312-14.125l16.121094-31.578126c30.667969 38.664063 79.082032 45.648438 79.082032 45.648438-8.289063-96.125-89.179688-171.8125-187.414063-171.8125zm0 0" fill="#596674"/><path d="m221.765625 8.101562c-4.949219-.390624-9.953125-.601562-15-.601562-98.238281 0-179.128906 75.6875-187.417969 171.8125 0 0 13.671875-1.972656 31.089844-9.621094 11.992188-86.636718 83.210938-154.601562 171.328125-161.589844zm0 0" fill="#565c62"/><path d="m276.71875 246.316406h-11.449219c-4.144531 0-7.5-3.359375-7.5-7.5 0-4.144531 3.355469-7.5 7.5-7.5h11.449219c4.144531 0 7.5 3.355469 7.5 7.5 0 4.140625-3.355469 7.5-7.5 7.5zm0 0" fill="#fd6f71"/><path d="m148.261719 246.316406h-11.453125c-4.140625 0-7.5-3.359375-7.5-7.5 0-4.144531 3.359375-7.5 7.5-7.5h11.453125c4.140625 0 7.5 3.355469 7.5 7.5 0 4.140625-3.359375 7.5-7.5 7.5zm0 0" fill="#fd6f71"/><path d="m413.53125 205.25c0-11.078125-4.402344-21.644531-12.152344-29.453125-4.050781-40.132813-20.183594-77.476563-46.78125-108.15625-2.710937-3.128906-7.445312-3.46875-10.578125-.753906-3.128906 2.710937-3.46875 7.449219-.753906 10.578125 22.867187 26.378906 37.363281 58.089844 42.265625 92.238281-14.980469-4.085937-44.109375-14.921875-64.558594-40.699219-1.585937-2-4.074218-3.0625-6.617187-2.804687-2.539063.253906-4.777344 1.78125-5.9375 4.054687l-16.121094 31.582032c-3.160156 6.1875-9.441406 10.03125-16.390625 10.03125h-138.285156c-6.949219 0-13.226563-3.84375-16.386719-10.03125l-16.125-31.582032c-1.160156-2.273437-3.394531-3.800781-5.9375-4.054687-2.539063-.257813-5.03125.804687-6.617187 2.804687-20.355469 25.664063-49.539063 36.550782-64.546876 40.671875 12.714844-87.53125 89.300782-154.675781 178.757813-154.675781 43.023437 0 84.730469 15.445312 117.429687 43.496094 3.144532 2.695312 7.878907 2.335937 10.574219-.8125 2.699219-3.144532 2.335938-7.878906-.808593-10.574219-35.417969-30.378906-80.589844-47.109375-127.195313-47.109375-49.214844 0-96.277344 18.414062-132.523437 51.847656-35.316407 32.578125-57.28125 76.496094-62.082032 123.941406-7.757812 7.808594-12.160156 18.378907-12.160156 29.460938 0 18.535156 11.890625 34.296875 28.808594 39.761719l-3.753906 99.085937c-.425782 11.257813 3.640624 21.929688 11.453124 30.042969 6.769532 7.03125 15.5625 11.320313 25.117188 12.34375v37.957031c-13.214844 23.984375-20.535156 51.375-20.535156 80.054688 0 4.144531 3.359375 7.5 7.5 7.5h129.082031c.015625 0 .027344.003906.039063.003906.007812 0 .015624-.003906.023437-.003906h56.886719c.011718 0 .015625.003906.023437.003906.011719 0 .023438-.003906.039063-.003906h130.253906c4.144531 0 7.503906-3.355469 7.503906-7.5 0-28.683594-7.320312-56.078125-20.535156-80.0625v-37.949219c9.554688-1.023437 18.347656-5.3125 25.113281-12.34375 7.816407-8.113281 11.882813-18.785156 11.457031-30.042969l-3.753906-99.089844c16.90625-5.484374 28.808594-21.273437 28.808594-39.757812zm-398.53125 0c0-7.121094 2.835938-13.914062 7.828125-18.925781.953125-.179688 2.167969-.425781 3.601563-.75-.183594 3.347656-.28125 6.699219-.28125 10.042969 0 11.394531 1.074218 22.542968 3.101562 33.359374-8.554688-4.5-14.25-13.449218-14.25-23.726562zm26.769531-24.070312c15.585938-5.386719 37.019531-15.578126 55.011719-34.253907l11.09375 21.730469c5.734375 11.234375 17.136719 18.210938 29.75 18.210938h138.28125c12.613281 0 24.015625-6.976563 29.75-18.210938l11.09375-21.730469c17.992188 18.675781 39.425781 28.867188 55.011719 34.253907.410156 4.789062.621093 9.628906.621093 14.4375 0 91.320312-74.296874 165.613281-165.617187 165.613281s-165.617187-74.292969-165.617187-165.613281c0-4.808594.207031-9.648438.621093-14.4375zm279.78125 168.28125c8.464844 0 15.355469 6.886718 15.355469 15.351562v37.011719c-13.914062-17.632813-31.480469-32.496094-51.925781-43.421875 5.605469-2.703125 11.039062-5.695313 16.304687-8.941406zm-129.363281 46.230468 11-11.003906c.957031-.957031 2.226562-1.480469 3.578125-1.480469 1.347656 0 2.621094.523438 3.574219 1.480469l11.003906 11.003906c1.972656 1.96875 1.972656 5.179688 0 7.148438l-11.003906 11.003906c-.953125.957031-2.226563 1.480469-3.574219 1.480469-1.351563 0-2.621094-.523438-3.578125-1.480469l-11-11.003906c-1.976562-1.96875-1.976562-5.179688 0-7.148438zm-10.609375-10.609375c-2.203125 2.203125-3.757813 4.796875-4.722656 7.558594-8.144531-1.953125-14.472657-4.363281-18.617188-6.199219v-16.839844c10.601563 2.960938 21.59375 4.972657 32.878907 5.945313zm-104.953125-5.875v-14.394531c0-8.464844 6.886719-15.351562 15.351562-15.351562h20.269532c5.261718 3.246093 10.699218 6.238281 16.300781 8.941406-20.441406 10.925781-38.007813 25.792968-51.921875 43.429687v-22.585937c0-.007813 0-.011719 0-.019532 0-.007812 0-.011718 0-.019531zm-29.308594-15.46875c-4.960937-5.152343-7.542968-11.925781-7.273437-19.070312l2.777343-73.308594c11.363282 24.492187 28.050782 46.03125 48.578126 63.117187-16.46875.308594-29.773438 13.792969-29.773438 30.335938v6.527344c-5.429688-.929688-10.402344-3.542969-14.308594-7.601563zm51.921875 133.257813h-42.964843c1.847656-37.550782 17.492187-72.238282 42.964843-98.136719zm44-105.945313c0 .117188-.003906.230469 0 .34375v105.605469h-29v-111.476562c8.855469-6.871094 18.550781-12.832032 29-17.6875zm28.449219 105.945313h-13.449219v-94.355469c5.226563 1.960937 11.808594 3.988281 19.589844 5.578125.941406 1.886719 2.179687 3.660156 3.75 5.230469l7.09375 7.09375zm15.363281 0 14.945313-67.261719c1.542968.378906 3.140625.59375 4.769531.59375 1.238281 0 2.457031-.125 3.652344-.34375l14.886719 67.015625h-38.253907zm68.242188 0h-14.625l-16.769531-75.492188 8.050781-8.054687c1.570312-1.570313 2.8125-3.34375 3.75-5.230469 7.785156-1.589844 14.367187-3.621094 19.59375-5.578125zm0-110.558594c-4.132813 1.832031-10.460938 4.246094-18.621094 6.203125-.960937-2.761719-2.519531-5.355469-4.722656-7.558594l-9.535157-9.539062c11.285157-.972657 22.277344-2.980469 32.878907-5.941407zm44 110.558594h-29v-129.160156c10.445312 4.855468 20.144531 10.8125 29 17.6875zm57.960937 0h-42.960937v-98.140625c25.472656 25.898437 41.117187 60.578125 42.960937 98.140625zm8.960938-133.257813c-3.910156 4.058594-8.878906 6.671875-14.3125 7.601563v-6.527344c0-16.542969-13.304688-30.027344-29.773438-30.335938 20.527344-17.085937 37.214844-38.625 48.578125-63.117187l2.777344 73.308594c.273437 7.144531-2.308594 13.917969-7.269531 19.070312zm18.066406-134.769531c2.027344-10.816406 3.097656-21.960938 3.097656-33.351562 0-3.34375-.097656-6.695313-.28125-10.042969 1.4375.324219 2.648438.570312 3.601563.75 4.996093 5.011719 7.832031 11.804687 7.832031 18.925781 0 10.246094-5.703125 19.207031-14.25 23.71875zm0 0"/><path d="m206.765625 254.191406c9.632813 0 18.597656-5.1875 23.402344-13.546875 2.0625-3.589843.824219-8.175781-2.765625-10.238281-3.589844-2.066406-8.175782-.828125-10.238282 2.765625-2.136718 3.714844-6.121093 6.019531-10.398437 6.019531s-8.265625-2.308594-10.398437-6.023437c-2.0625-3.589844-6.648438-4.828125-10.238282-2.761719-3.59375 2.0625-4.832031 6.648438-2.765625 10.238281 4.800781 8.359375 13.769531 13.546875 23.402344 13.546875zm0 0"/><path d="m270.996094 224.667969c4.140625 0 7.5-3.355469 7.5-7.5v-11.453125c0-4.140625-3.359375-7.5-7.5-7.5-4.144532 0-7.5 3.359375-7.5 7.5v11.453125c0 4.144531 3.355468 7.5 7.5 7.5zm0 0"/><path d="m142.535156 224.667969c4.144532 0 7.5-3.355469 7.5-7.5v-11.453125c0-4.140625-3.355468-7.5-7.5-7.5-4.144531 0-7.5 3.359375-7.5 7.5v11.453125c0 4.144531 3.355469 7.5 7.5 7.5zm0 0"/></svg>